<svg 
 xmlns="http://www.w3.org/2000/svg"
 xmlns:xlink="http://www.w3.org/1999/xlink"
 width="4134px" height="874px">
<defs>
<linearGradient id="PSgrad_0" x1="0%" x2="76.604%" y1="0%" y2="64.279%">
  <stop offset="0%" stop-color="rgb(0,120,255)" stop-opacity="1" />
  <stop offset="38%" stop-color="rgb(27,86,225)" stop-opacity="1" />
  <stop offset="100%" stop-color="rgb(53,51,194)" stop-opacity="1" />
</linearGradient>

</defs>
<path fill-rule="evenodd"  fill="url(#PSgrad_0)"
 d="M100.0,0.0 L4033.999,0.0 C4089.228,0.0 4133.999,44.771 4133.999,100.0 L4133.999,773.999 C4133.999,829.228 4089.228,873.999 4033.999,873.999 L100.0,873.999 C44.771,873.999 0.0,829.228 0.0,773.999 L0.0,100.0 C0.0,44.771 44.771,0.0 100.0,0.0 Z"/>
<path fill-rule="evenodd"  fill="rgb(254, 254, 254)"
 d="M3779.875,486.375 C3784.806,491.312 3791.848,493.777 3801.0,493.777 L3830.250,493.777 L3830.250,542.888 L3802.444,542.888 C3782.459,542.888 3766.333,540.361 3754.55,535.305 C3741.777,530.250 3732.750,521.888 3726.972,510.208 C3721.194,498.534 3718.305,482.707 3718.305,462.722 L3718.467,384.722 L3688.333,384.722 L3688.333,342.111 L3718.555,342.111 L3718.666,288.666 L3772.472,288.666 L3772.472,342.111 L3830.250,342.111 L3830.250,384.722 L3772.472,384.722 L3772.472,464.888 C3772.472,474.277 3774.937,481.443 3779.875,486.375 ZM3605.277,423.722 C3605.277,413.131 3602.208,404.526 3596.69,397.902 C3589.930,391.284 3581.563,387.972 3570.972,387.972 C3560.139,387.972 3551.410,391.346 3544.791,398.83 C3538.167,404.825 3534.861,413.735 3534.861,424.805 L3534.861,540.0 L3476.722,540.0 L3476.722,342.111 L3522.944,342.111 L3522.944,391.957 C3524.126,386.358 3525.630,381.176 3527.458,376.416 C3532.632,362.937 3540.514,352.825 3551.111,346.83 C3561.702,339.346 3574.583,335.972 3589.750,335.972 L3592.277,335.972 C3615.389,335.972 3633.21,343.499 3645.180,358.541 C3657.334,373.589 3663.416,396.401 3663.416,426.972 L3663.416,540.0 L3605.277,540.0 L3605.277,423.722 ZM3298.333,472.291 C3301.701,481.82 3306.999,487.881 3314.222,492.694 C3321.444,497.513 3330.833,499.916 3342.388,499.916 C3352.979,499.916 3361.646,497.874 3368.388,493.777 C3375.125,489.687 3379.701,484.631 3382.111,478.611 L3435.194,478.611 C3432.305,491.853 3426.646,503.651 3418.222,513.999 C3409.792,524.353 3399.201,532.478 3386.444,538.375 C3373.681,544.271 3358.999,547.222 3342.388,547.222 C3325.535,547.222 3310.667,544.333 3297.791,538.555 C3284.910,532.777 3274.138,524.957 3265.472,515.83 C3256.805,505.214 3250.243,494.200 3245.791,482.41 C3241.334,469.888 3239.111,457.429 3239.111,444.666 L3239.111,437.444 C3239.111,424.207 3241.334,411.506 3245.791,399.347 C3250.243,387.193 3256.743,376.298 3265.291,366.666 C3273.834,357.40 3284.430,349.395 3297.69,343.736 C3309.708,338.82 3324.90,335.250 3340.222,335.250 C3361.403,335.250 3379.278,340.6 3393.847,349.513 C3408.410,359.26 3419.542,371.423 3427.250,386.708 C3434.951,401.999 3438.805,418.666 3438.805,436.722 L3438.805,456.222 L3294.272,456.222 C3295.103,462.44 3296.455,467.402 3298.333,472.291 ZM3383.587,423.361 C3382.778,417.830 3381.507,412.831 3379.763,408.374 C3376.513,400.69 3371.576,393.693 3364.958,389.236 C3358.334,384.784 3350.90,382.555 3340.222,382.555 C3330.111,382.555 3321.562,384.784 3314.583,389.236 C3307.598,393.693 3302.305,400.312 3298.694,409.97 C3296.935,413.380 3295.607,418.137 3294.705,423.361 L3383.587,423.361 ZM3144.500,424.83 C3144.500,413.492 3141.729,404.825 3136.194,398.83 C3130.653,391.346 3122.709,387.972 3112.361,387.972 C3102.7,387.972 3093.820,391.402 3087.805,398.263 C3081.785,405.124 3078.777,414.96 3078.777,425.166 L3078.777,540.0 L3020.638,540.0 L3020.638,424.83 C3020.638,413.492 3017.806,404.825 3012.152,398.83 C3006.493,391.346 2998.611,387.972 2988.500,387.972 C2977.903,387.972 2969.598,391.402 2963.583,398.263 C2957.562,405.124 2954.555,414.96 2954.555,425.166 L2954.555,540.0 L2896.416,540.0 L2896.416,342.111 L2942.638,342.111 L2942.638,391.954 C2943.782,386.494 2945.226,381.435 2946.972,376.777 C2952.27,363.298 2959.611,353.124 2969.722,346.263 C2979.833,339.402 2992.229,335.972 3006.916,335.972 L3009.444,335.972 C3024.368,335.972 3036.826,339.402 3046.819,346.263 C3056.806,353.124 3064.389,363.298 3069.569,376.777 C3069.816,377.421 3070.56,378.76 3070.291,378.735 C3070.526,378.76 3070.766,377.421 3071.13,376.777 C3076.187,363.298 3083.833,353.124 3093.944,346.263 C3104.55,339.402 3116.451,335.972 3131.138,335.972 L3133.666,335.972 C3148.590,335.972 3161.167,339.402 3171.402,346.263 C3181.632,353.124 3189.396,363.298 3194.694,376.777 C3199.987,390.263 3202.638,407.111 3202.638,427.333 L3202.638,540.0 L3144.500,540.0 L3144.500,424.83 ZM2781.583,535.305 C2769.305,530.250 2760.277,521.888 2754.500,510.208 C2748.722,498.534 2745.833,482.707 2745.833,462.722 L2745.995,384.722 L2715.861,384.722 L2715.861,342.111 L2746.83,342.111 L2746.194,288.666 L2800.0,288.666 L2800.0,342.111 L2857.777,342.111 L2857.777,384.722 L2800.0,384.722 L2800.0,464.888 C2800.0,474.277 2802.465,481.443 2807.402,486.375 C2812.334,491.312 2819.375,493.777 2828.527,493.777 L2857.777,493.777 L2857.777,542.888 L2829.972,542.888 C2809.987,542.888 2793.861,540.361 2781.583,535.305 ZM2632.805,423.722 C2632.805,413.131 2629.736,404.526 2623.597,397.902 C2617.458,391.284 2609.90,387.972 2598.500,387.972 C2587.666,387.972 2578.938,391.346 2572.319,398.83 C2565.695,404.825 2562.389,413.735 2562.389,424.805 L2562.389,540.0 L2504.250,540.0 L2504.250,342.111 L2550.472,342.111 L2550.472,391.956 C2551.654,386.358 2553.157,381.176 2554.986,376.416 C2560.160,362.937 2568.42,352.825 2578.639,346.83 C2589.229,339.346 2602.111,335.972 2617.278,335.972 L2619.805,335.972 C2642.916,335.972 2660.549,343.499 2672.708,358.541 C2684.862,373.589 2690.944,396.401 2690.944,426.972 L2690.944,540.0 L2632.805,540.0 L2632.805,423.722 ZM2393.28,385.83 L2366.666,385.83 L2366.666,342.111 L2393.28,342.111 L2451.166,342.111 L2451.166,385.83 L2451.166,540.0 L2393.28,540.0 L2393.28,385.83 ZM2415.778,322.611 C2404.944,322.611 2396.938,319.784 2391.764,314.124 C2386.584,308.471 2384.0,301.305 2384.0,292.638 C2384.0,283.735 2386.584,276.450 2391.764,270.791 C2396.938,265.138 2404.944,262.305 2415.778,262.305 C2426.611,262.305 2434.612,265.138 2439.791,270.791 C2444.965,276.450 2447.555,283.735 2447.555,292.638 C2447.555,301.305 2444.965,308.471 2439.791,314.124 C2434.612,319.784 2426.611,322.611 2415.778,322.611 ZM2315.208,516.708 C2305.938,526.221 2294.563,533.680 2281.83,539.97 C2267.598,544.513 2252.70,547.222 2234.500,547.222 C2217.166,547.222 2201.757,544.513 2188.277,539.97 C2174.792,533.680 2163.361,526.221 2153.972,516.708 C2144.583,507.200 2137.479,496.367 2132.666,484.208 C2127.848,472.54 2125.444,459.235 2125.444,445.749 L2125.444,437.444 C2125.444,423.722 2127.972,410.665 2133.27,398.263 C2138.83,385.867 2145.362,374.972 2154.875,365.583 C2164.382,356.194 2175.876,348.791 2189.361,343.375 C2202.840,337.958 2217.889,335.250 2234.500,335.250 C2251.590,335.250 2266.819,337.958 2280.180,343.375 C2293.541,348.791 2304.916,356.194 2314.305,365.583 C2323.694,374.972 2330.916,385.867 2335.972,398.263 C2341.27,410.665 2343.555,423.722 2343.555,437.444 L2343.555,445.749 C2343.555,459.235 2341.146,472.54 2336.333,484.208 C2331.514,496.367 2324.473,507.200 2315.208,516.708 ZM2279.458,411.986 C2275.486,403.443 2269.708,396.700 2262.125,391.763 C2254.541,386.832 2245.333,384.361 2234.500,384.361 C2223.903,384.361 2214.757,386.832 2207.55,391.763 C2199.348,396.700 2193.514,403.443 2189.541,411.986 C2185.569,420.534 2183.583,430.464 2183.583,441.777 C2183.583,452.374 2185.507,461.999 2189.361,470.666 C2193.209,479.333 2198.987,486.75 2206.694,490.888 C2214.396,495.707 2223.666,498.111 2234.500,498.111 C2245.813,498.111 2255.202,495.707 2262.666,490.888 C2270.126,486.75 2275.785,479.333 2279.639,470.666 C2283.487,461.999 2285.416,452.374 2285.416,441.777 C2285.416,430.464 2283.430,420.534 2279.458,411.986 ZM2073.986,517.430 C2066.160,526.700 2056.652,533.861 2045.458,538.916 C2034.264,543.972 2021.444,546.499 2007.0,546.499 C1992.70,546.499 1978.652,543.430 1966.736,537.291 C1956.886,532.217 1948.642,524.921 1942.0,515.406 L1942.0,612.222 L1883.861,612.222 L1883.861,342.111 L1930.83,342.111 L1930.83,391.830 C1931.788,386.658 1933.833,381.819 1936.222,377.319 C1943.444,363.721 1953.194,353.486 1965.472,346.625 C1977.750,339.763 1991.590,336.333 2007.0,336.333 C2020.722,336.333 2033.180,338.861 2044.375,343.916 C2055.569,348.972 2065.195,356.13 2073.264,365.41 C2081.327,374.69 2087.465,384.665 2091.680,396.819 C2095.889,408.978 2098.0,422.277 2098.0,436.722 L2098.0,445.27 C2098.0,459.235 2095.952,472.534 2091.861,484.930 C2087.764,497.332 2081.806,508.165 2073.986,517.430 ZM2033.722,411.263 C2029.626,402.958 2023.910,396.458 2016.569,391.763 C2009.223,387.69 2000.618,384.722 1990.750,384.722 C1982.83,384.722 1973.896,386.708 1966.194,390.680 C1958.487,394.652 1952.291,400.492 1947.597,408.194 C1942.902,415.901 1940.555,425.48 1940.555,435.638 L1940.555,448.999 C1940.555,459.353 1943.21,468.200 1947.958,475.541 C1952.889,482.888 1959.209,488.485 1966.916,492.333 C1974.618,496.187 1982.563,498.111 1990.750,498.111 C2000.618,498.111 2009.223,495.707 2016.569,490.888 C2023.910,486.75 2029.626,479.333 2033.722,470.666 C2037.813,461.999 2039.861,452.13 2039.861,440.694 C2039.861,429.381 2037.813,419.569 2033.722,411.263 ZM1820.125,517.430 C1812.299,526.700 1802.791,533.861 1791.597,538.916 C1780.403,543.972 1767.583,546.499 1753.139,546.499 C1738.209,546.499 1724.791,543.430 1712.875,537.291 C1703.25,532.217 1694.781,524.921 1688.139,515.406 L1688.139,612.222 L1630.0,612.222 L1630.0,342.111 L1676.222,342.111 L1676.222,391.830 C1677.927,386.658 1679.972,381.819 1682.361,377.319 C1689.583,363.721 1699.333,353.486 1711.611,346.625 C1723.889,339.763 1737.729,336.333 1753.139,336.333 C1766.861,336.333 1779.319,338.861 1790.514,343.916 C1801.708,348.972 1811.334,356.13 1819.403,365.41 C1827.465,374.69 1833.604,384.665 1837.819,396.819 C1842.28,408.978 1844.139,422.277 1844.139,436.722 L1844.139,445.27 C1844.139,459.235 1842.90,472.534 1838.0,484.930 C1833.903,497.332 1827.945,508.165 1820.125,517.430 ZM1779.861,411.263 C1775.765,402.958 1770.49,396.458 1762.708,391.763 C1755.362,387.69 1746.757,384.722 1736.889,384.722 C1728.222,384.722 1720.35,386.708 1712.333,390.680 C1704.626,394.652 1698.430,400.492 1693.736,408.194 C1689.41,415.901 1686.694,425.48 1686.694,435.638 L1686.694,448.999 C1686.694,459.353 1689.160,468.200 1694.97,475.541 C1699.28,482.888 1705.348,488.485 1713.55,492.333 C1720.757,496.187 1728.702,498.111 1736.889,498.111 C1746.757,498.111 1755.362,495.707 1762.708,490.888 C1770.49,486.75 1775.765,479.333 1779.861,470.666 C1783.952,461.999 1786.0,452.13 1786.0,440.694 C1786.0,429.381 1783.952,419.569 1779.861,411.263 ZM1516.483,474.638 L1406.430,474.638 L1385.528,540.0 L1326.305,540.0 L1413.333,276.388 L1509.27,276.388 L1599.305,540.0 L1537.916,540.0 L1516.483,474.638 ZM1467.459,325.138 L1454.241,325.138 L1422.136,425.527 L1500.378,425.527 L1467.459,325.138 ZM1180.416,540.0 L1118.305,447.555 L1099.166,447.555 L1099.166,540.0 L1041.27,540.0 L1041.27,276.388 L1099.166,276.388 L1099.166,436.207 L1171.27,342.111 L1231.694,342.111 L1166.677,426.633 L1245.777,540.0 L1180.416,540.0 ZM972.597,516.708 C963.327,526.221 951.952,533.680 938.472,539.97 C924.987,544.513 909.459,547.222 891.889,547.222 C874.555,547.222 859.146,544.513 845.666,539.97 C832.181,533.680 820.750,526.221 811.361,516.708 C801.972,507.200 794.868,496.367 790.55,484.208 C785.237,472.54 782.833,459.235 782.833,445.749 L782.833,437.444 C782.833,423.722 785.361,410.665 790.416,398.263 C795.472,385.867 802.751,374.972 812.264,365.583 C821.771,356.194 833.265,348.791 846.750,343.375 C860.229,337.958 875.277,335.250 891.889,335.250 C908.979,335.250 924.208,337.958 937.569,343.375 C950.930,348.791 962.305,356.194 971.694,365.583 C981.83,374.972 988.305,385.867 993.361,398.263 C998.416,410.665 1000.944,423.722 1000.944,437.444 L1000.944,445.749 C1000.944,459.235 998.535,472.54 993.722,484.208 C988.903,496.367 981.862,507.200 972.597,516.708 ZM936.847,411.986 C932.875,403.443 927.97,396.700 919.514,391.763 C911.930,386.832 902.722,384.361 891.889,384.361 C881.292,384.361 872.146,386.832 864.444,391.763 C856.737,396.700 850.902,403.443 846.930,411.986 C842.958,420.534 840.972,430.464 840.972,441.777 C840.972,452.374 842.896,461.999 846.750,470.666 C850.598,479.333 856.376,486.75 864.83,490.888 C871.785,495.707 881.55,498.111 891.889,498.111 C903.202,498.111 912.590,495.707 920.55,490.888 C927.515,486.75 933.174,479.333 937.27,470.666 C940.876,461.999 942.805,452.374 942.805,441.777 C942.805,430.464 940.819,420.534 936.847,411.986 ZM726.680,516.708 C717.410,526.221 706.35,533.680 692.555,539.97 C679.70,544.513 663.542,547.222 645.972,547.222 C628.639,547.222 613.229,544.513 599.750,539.97 C586.265,533.680 574.833,526.221 565.444,516.708 C556.55,507.200 548.952,496.367 544.139,484.208 C539.320,472.54 536.916,459.235 536.916,445.749 L536.916,437.444 C536.916,423.722 539.444,410.665 544.500,398.263 C549.555,385.867 556.834,374.972 566.347,365.583 C575.854,356.194 587.348,348.791 600.833,343.375 C614.313,337.958 629.361,335.250 645.972,335.250 C663.63,335.250 678.291,337.958 691.653,343.375 C705.14,348.791 716.389,356.194 725.778,365.583 C735.166,374.972 742.389,385.867 747.444,398.263 C752.500,410.665 755.28,423.722 755.28,437.444 L755.28,445.749 C755.28,459.235 752.618,472.54 747.805,484.208 C742.987,496.367 735.945,507.200 726.680,516.708 ZM690.930,411.986 C686.958,403.443 681.180,396.700 673.597,391.763 C666.14,386.832 656.805,384.361 645.972,384.361 C635.376,384.361 626.229,386.832 618.528,391.763 C610.820,396.700 604.986,403.443 601.14,411.986 C597.41,420.534 595.55,430.464 595.55,441.777 C595.55,452.374 596.979,461.999 600.833,470.666 C604.681,479.333 610.459,486.75 618.166,490.888 C625.868,495.707 635.139,498.111 645.972,498.111 C657.285,498.111 666.674,495.707 674.139,490.888 C681.598,486.75 687.257,479.333 691.111,470.666 C694.959,461.999 696.889,452.374 696.889,441.777 C696.889,430.464 694.903,420.534 690.930,411.986 ZM466.139,533.138 C452.174,539.159 434.840,542.166 414.139,542.166 L362.500,542.166 L355.277,542.166 L304.722,542.166 L304.722,274.222 L355.277,274.222 L362.500,274.222 L403.666,274.222 C434.0,274.222 457.291,280.603 473.541,293.361 C489.791,306.124 497.916,324.298 497.916,347.888 L497.916,353.305 C497.916,369.679 493.764,382.798 485.458,392.666 C481.776,397.43 477.526,400.873 472.709,404.160 C482.353,408.529 490.275,414.446 496.472,421.916 C504.653,431.790 508.750,445.151 508.750,461.999 L508.750,467.55 C508.750,482.707 505.139,496.124 497.916,507.319 C490.694,518.513 480.98,527.124 466.139,533.138 ZM431.652,329.291 C426.473,323.638 418.348,320.805 407.277,320.805 L362.500,320.805 L362.500,384.722 L407.277,384.722 C418.348,384.722 426.473,381.833 431.652,376.55 C436.827,370.277 439.416,362.575 439.416,352.944 C439.416,342.833 436.827,334.950 431.652,329.291 ZM441.944,437.986 C436.403,432.332 428.98,429.500 417.27,429.500 L362.500,429.500 L362.500,495.583 L417.27,495.583 C428.98,495.583 436.403,492.694 441.944,486.916 C447.479,481.138 450.250,472.957 450.250,462.361 C450.250,451.770 447.479,443.645 441.944,437.986 Z"/>
</svg>