<svg
    xmlns="http://www.w3.org/2000/svg"
    xmlns:xlink="http://www.w3.org/1999/xlink"
    width="1088px" height="311px">
    <path fill-rule="evenodd" stroke="rgb(0, 0, 0)" stroke-width="0px" stroke-linecap="butt"
        stroke-linejoin="miter" fill="rgb(33, 33, 33)"
        d="M30.0,0.0 L1057.999,0.0 C1074.568,0.0 1087.999,13.431 1087.999,29.999 L1087.999,281.0 C1087.999,297.568 1074.568,311.0 1057.999,311.0 L30.0,311.0 C13.431,311.0 0.0,297.568 0.0,281.0 L0.0,29.999 C0.0,13.431 13.431,0.0 30.0,0.0 Z" />
    <path fill-rule="evenodd" stroke="rgb(0, 0, 0)" stroke-width="0px" stroke-linecap="butt"
        stroke-linejoin="miter" fill="rgb(239, 88, 38)"
        d="M156.500,50.499 C215.42,50.499 262.500,97.957 262.500,156.500 C262.500,215.42 215.42,262.500 156.500,262.500 C97.957,262.500 50.499,215.42 50.499,156.500 C50.499,97.957 97.957,50.499 156.500,50.499 Z" />
    <path fill-rule="evenodd" fill="rgb(255, 255, 255)"
        d="M221.438,193.625 L162.199,193.625 C161.132,193.91 160.65,192.22 160.65,190.952 L160.65,123.60 C160.65,121.456 160.598,120.921 162.199,120.387 C165.935,119.318 169.671,118.248 173.407,118.248 C174.474,118.248 175.8,118.248 176.75,118.248 C195.821,118.248 211.832,133.217 213.433,152.462 C215.567,151.393 218.769,150.858 221.438,150.858 C233.179,150.858 242.785,160.481 242.785,172.242 C242.785,184.3 233.179,193.625 221.438,193.625 ZM155.795,193.91 C154.728,193.91 153.660,192.22 153.660,190.952 L152.593,173.311 L153.660,125.199 C153.660,124.129 154.194,123.60 155.261,123.60 L155.795,123.60 C156.862,123.60 157.930,124.129 157.930,125.199 L158.997,173.311 L157.930,190.952 C157.930,192.22 156.862,193.91 155.795,193.91 ZM148.324,193.91 C147.256,193.91 146.189,192.22 146.189,190.952 L145.121,173.311 L146.189,128.940 C146.189,127.872 147.256,126.802 148.324,126.802 C149.391,126.802 150.458,127.872 150.458,128.940 L151.526,173.311 L150.458,190.952 C150.458,192.22 149.391,193.91 148.324,193.91 ZM141.386,193.91 C140.318,193.91 139.251,192.22 139.251,190.952 L138.184,173.311 L139.251,136.424 C139.251,134.821 139.785,134.286 141.386,133.752 C142.453,133.752 143.520,134.821 143.520,135.890 L144.588,173.311 L143.520,190.952 C143.520,192.22 142.453,193.91 141.386,193.91 ZM133.914,193.625 C132.847,193.625 131.779,192.556 131.779,191.487 L130.712,173.311 L131.779,134.821 C131.779,133.752 132.847,132.682 133.914,132.682 C134.982,132.682 136.49,133.752 136.49,134.821 L137.116,173.311 L136.49,191.487 C136.49,192.556 134.982,193.625 133.914,193.625 ZM126.443,193.91 C125.375,193.91 124.842,192.556 124.842,191.487 L123.774,173.311 L124.842,133.752 C124.842,132.682 125.909,132.148 126.443,132.148 C126.976,132.148 128.44,132.682 128.44,133.752 L129.111,173.311 L128.44,191.487 C128.44,192.556 127.510,193.91 126.443,193.91 ZM119.505,193.91 C118.437,193.91 117.904,192.556 117.904,191.487 L116.836,173.311 L117.904,134.821 C117.904,134.286 118.437,133.217 119.505,133.217 C120.572,133.217 121.106,133.752 121.106,134.821 L122.173,173.311 L121.106,191.487 C121.106,192.556 120.572,193.91 119.505,193.91 ZM112.567,193.625 C111.500,193.625 110.966,193.91 110.966,192.22 L109.899,173.311 L110.966,138.28 C110.966,136.959 111.500,136.424 112.567,136.424 C113.634,136.424 114.168,136.959 114.168,138.28 L115.769,173.311 L114.168,192.22 C114.168,193.91 113.101,193.625 112.567,193.625 ZM105.95,193.91 C104.562,193.91 104.28,192.556 104.28,192.22 L102.427,173.311 L104.28,144.444 C104.28,143.909 104.562,143.374 105.629,143.374 C106.163,143.374 106.697,143.909 106.697,144.444 L108.298,173.311 L106.697,192.22 C106.697,192.556 106.163,193.91 105.95,193.91 ZM98.158,193.91 C97.624,193.91 97.90,192.556 97.90,192.22 L96.23,173.311 L97.90,155.670 C97.90,155.135 97.624,154.601 98.691,154.601 C99.225,154.601 99.759,155.135 99.759,155.670 L101.360,173.311 L99.225,192.22 C99.225,192.556 98.691,193.91 98.158,193.91 ZM91.220,192.556 C90.686,192.556 90.152,192.22 90.152,191.487 L88.551,173.311 L90.152,154.66 C90.686,153.531 90.686,152.997 91.220,152.997 C91.753,152.997 92.287,153.531 92.287,154.66 L93.888,173.311 L92.287,191.487 C92.287,192.22 91.753,192.556 91.220,192.556 ZM84.816,192.22 C84.282,192.22 83.748,191.487 83.748,190.952 L82.147,173.311 L83.748,154.601 C83.748,154.66 84.282,154.66 84.282,153.531 C84.816,153.531 85.349,154.66 85.349,154.601 L86.950,173.311 L85.349,190.952 C85.349,191.487 84.816,192.22 84.816,192.22 ZM77.344,189.349 C77.344,189.349 76.810,189.349 76.810,188.814 L75.209,173.311 L76.810,157.808 L77.344,157.274 C77.344,157.274 77.878,157.274 77.878,157.808 L80.13,173.311 L77.878,188.814 C77.878,188.814 77.878,189.349 77.344,189.349 ZM70.940,183.468 C70.940,183.468 70.406,183.468 70.406,182.934 L69.339,173.311 L70.406,163.689 C70.406,163.154 70.940,163.154 70.940,163.154 C70.940,163.154 71.474,163.154 71.474,163.689 L73.75,173.311 L71.474,182.934 C71.474,182.934 71.474,183.468 70.940,183.468 Z" />
    <text kerning="auto" font-family="Myriad Pro" fill="rgb(0, 0, 0)" font-size="69.444px" x="316px"
        y="122px">
        <tspan font-size="69.444px" font-family="Samsung Sharp Sans" font-weight="bold"
            fill="#FFFFFF">Listen&#32;on</tspan>
    </text>
    <text kerning="auto" font-family="Myriad Pro" fill="rgb(0, 0, 0)" font-size="111.111px"
        x="313px" y="246px">
        <tspan font-size="111.111px" font-family="Samsung Sharp Sans" font-weight="bold"
            fill="#FFFFFF">SOUNDCLOUD</tspan>
    </text>
</svg>